# xmcd
#
# Track frame offsets:
#	150
#	23593
#	45228
#	63578
#
# Disc length: 1148 seconds
#
# Revision: 1
# Processed by: cddbd v1.5.1PL0 Copyright (c) Steve Scherf et al.
# Submitted via: CDex 1.50Beta5
#
DISCID=26047a04
DTITLE=中島みゆき - 中島みゆき CDV GOLD
DYEAR=1900
DGENRE=Folk
TTITLE0=あたいの夏休み
TTITLE1=F.O.
TTITLE2=やまねこ
TTITLE3=白鳥の唄が聴こえる
EXTD=
EXTT0=
EXTT1=
EXTT2=
EXTT3=
PLAYORDER=
